<svg preserveAspectRatio="none" width="100%" height="100%" overflow="visible" style="display: block;" viewBox="0 0 236 52.9212" fill="none" xmlns="http://www.w3.org/2000/svg">
<path id="Allowa" d="M48.7943 33.0758C49.0358 32.0957 49.5189 31.1157 50.2436 30.3807C50.9683 29.6457 51.9345 28.9107 52.9007 28.6657C53.8669 28.1756 55.0747 27.9306 56.7656 27.4406C58.2149 27.1956 59.9058 26.9506 61.5967 26.9506C63.2876 26.9506 65.4616 26.7056 67.8772 26.7056V24.5006C67.8772 20.8255 66.1863 19.1104 62.5629 19.1104C61.3552 19.1104 60.1474 19.3554 58.9396 19.6004C57.7318 19.8455 56.7656 20.0905 56.0409 20.3355C55.3163 20.5805 54.5916 20.8255 53.6254 21.3155H53.3838H53.1423H52.9007C52.176 21.3155 51.4514 21.0705 50.9683 20.3355C50.4852 19.6004 50.2436 18.8654 50.2436 18.1304C50.2436 17.6404 50.4852 17.1504 50.7267 16.6604C50.9683 16.1704 51.4514 15.9254 51.9345 15.6804C55.3163 13.9653 59.1812 13.2303 63.5292 13.2303C65.4616 13.2303 67.1525 13.4753 68.8434 13.9653C70.0512 14.4553 71.259 15.1903 72.4667 16.1704C73.6745 17.1504 74.6407 18.3754 75.1239 20.0905C75.8485 21.8055 76.0901 23.7655 76.0901 25.9706V41.1609C76.0901 42.631 75.607 43.611 74.8823 44.346C74.1576 45.081 73.1914 45.571 72.2252 45.571C71.5005 45.571 70.7758 45.326 70.2927 45.081C68.8434 44.346 68.3603 43.121 68.3603 41.1609V40.1809C67.6356 41.896 66.4278 43.366 64.7369 44.346C63.0461 45.326 61.1136 45.8161 58.9396 45.8161C55.7994 45.8161 53.3838 45.081 51.2098 43.366C49.2774 41.651 48.3112 39.4459 48.3112 36.7508C48.3112 35.5258 48.5527 34.3008 48.7943 33.0758ZM63.0461 40.1809C64.0123 39.6909 64.737 39.2009 65.4616 38.4659C66.1863 37.7309 66.6694 36.7508 67.1525 35.7708C67.6356 34.7908 67.8772 33.5658 67.8772 32.3407V31.3607C66.4278 31.3607 65.4616 31.3607 64.4954 31.3607C63.5292 31.3607 62.8045 31.3607 61.8383 31.6057C60.8721 31.8507 60.1474 31.8507 59.6643 31.8507C59.1812 32.0957 58.4565 32.0957 57.9734 32.3407C57.4903 32.5857 57.0072 32.8308 56.7656 33.3208C56.5241 33.5658 56.2825 34.0558 56.0409 34.5458C55.7994 35.0358 55.7994 35.5258 55.7994 36.2608C55.7994 37.7309 56.2825 38.7109 57.0072 39.4459C57.7318 40.1809 58.9396 40.6709 60.1474 40.6709C61.3552 40.6709 62.3214 40.4259 63.0461 40.1809ZM85.5108 44.101C84.7861 43.121 84.5445 41.896 84.5445 40.1809V5.14512C84.5445 3.43008 85.0276 2.20505 85.7523 1.22503C86.477 0.245006 87.4432 0 88.651 0C90.1003 0 91.0665 0.490011 92.0328 1.22503C92.999 1.96004 93.2405 3.43008 93.2405 5.14512V40.1809C93.2405 41.896 92.7574 43.121 92.0328 44.101C91.3081 45.081 90.1003 45.326 88.651 45.326C87.2016 45.571 86.2354 45.081 85.5108 44.101ZM102.42 44.101C101.695 43.121 101.453 41.896 101.453 40.1809V5.14512C101.453 3.43008 101.937 2.20505 102.661 1.22503C103.386 0.245006 104.111 0 105.56 0C107.009 0 107.975 0.490011 108.942 1.22503C109.908 1.96004 110.149 3.43008 110.149 5.14512V40.1809C110.149 41.896 109.666 43.121 108.942 44.101C108.217 45.081 107.009 45.326 105.56 45.326C104.111 45.571 103.144 45.081 102.42 44.101ZM125.609 44.591C123.435 43.611 121.744 42.631 120.295 40.9159C119.087 39.4459 117.879 37.7309 117.396 35.7708C116.671 33.8108 116.43 31.8507 116.43 29.6457C116.43 27.4406 116.671 25.4806 117.396 23.5205C118.121 21.5605 119.087 19.8455 120.295 18.3754C121.744 16.9054 123.435 15.6804 125.609 14.7003C127.783 13.7203 130.199 13.4753 133.097 13.4753C135.754 13.4753 138.17 13.9653 140.344 14.7003C142.518 15.4354 144.209 16.6604 145.658 18.1304C147.107 19.6004 148.074 21.3155 148.798 23.2755C149.523 25.2356 149.765 27.4406 149.765 29.6457C149.765 31.8507 149.523 33.8108 148.798 35.7708C148.074 37.7309 147.107 39.4459 145.9 40.9159C144.692 42.386 142.759 43.611 140.585 44.591C138.411 45.571 135.996 45.8161 133.097 45.8161C130.199 45.8161 127.783 45.326 125.609 44.591ZM138.895 37.2409C140.344 35.2808 140.827 32.8308 140.827 29.6457C140.827 26.2156 140.102 23.7655 138.895 21.8055C137.445 19.8455 135.513 19.1104 133.097 19.1104C130.682 19.1104 128.749 20.0905 127.3 21.8055C125.851 23.5205 125.367 26.2156 125.367 29.6457C125.367 32.8308 126.092 35.5258 127.3 37.2409C128.508 38.9559 130.682 39.9359 133.097 39.9359C135.513 40.1809 137.445 39.2009 138.895 37.2409ZM187.447 44.101C186.481 43.121 185.515 41.4059 184.79 38.7109L179.234 21.5605L173.679 38.7109C172.954 41.4059 171.988 43.366 171.022 44.101C170.055 45.081 168.847 45.571 166.915 45.571C165.466 45.571 164.499 45.081 163.533 44.101C162.567 43.121 161.842 41.4059 161.118 39.2009L154.837 19.3554C154.596 18.8654 154.596 18.3754 154.596 17.8854C154.596 17.1504 154.837 16.4154 155.079 15.9254C155.562 15.4354 155.803 14.9453 156.528 14.7003C157.011 14.4553 157.736 14.2103 158.461 14.2103C158.944 14.2103 159.427 14.2103 159.91 14.4553C160.393 14.7003 160.876 14.9453 161.359 15.4354C161.842 15.6804 162.084 16.4154 162.325 17.1504L167.881 36.7508L173.679 19.1104C174.162 17.1504 174.886 15.9254 175.611 14.9453C176.336 13.9653 177.544 13.7203 178.993 13.7203C180.442 13.7203 181.65 14.2103 182.375 14.9453C183.099 15.9254 183.824 17.1504 184.307 19.1104L190.104 36.7508L195.66 17.1504C195.902 16.1704 196.385 15.1903 197.11 14.7003C197.834 14.2103 198.559 13.9653 199.525 13.9653C200.491 13.9653 201.458 14.2103 202.182 14.9453C202.907 15.6804 203.39 16.6604 203.39 17.6404C203.39 17.8854 203.39 18.1304 203.39 18.3754C203.39 18.6204 203.39 18.8654 203.148 19.1104L196.868 38.9559C196.143 41.1609 195.419 42.876 194.452 43.856C193.486 44.836 192.52 45.326 191.071 45.326C189.621 45.571 188.172 45.081 187.447 44.101ZM208.221 33.0758C208.463 32.0957 208.946 31.1157 209.67 30.3807C210.395 29.6457 211.361 28.9107 212.328 28.6657C213.294 28.1756 214.502 27.9306 216.192 27.4406C217.642 27.1956 219.333 26.9506 221.024 26.9506C222.714 26.9506 224.888 26.7056 227.304 26.7056V24.5006C227.304 20.8255 225.613 19.1104 221.99 19.1104C220.782 19.1104 219.574 19.3554 218.366 19.6004C217.159 19.8455 216.192 20.0905 215.468 20.3355C214.743 20.5805 214.018 20.8255 213.052 21.3155H212.811H212.569H212.328C211.603 21.3155 210.878 21.0705 210.395 20.3355C209.912 19.6004 209.67 18.8654 209.67 18.1304C209.67 17.6404 209.912 17.1504 210.154 16.6604C210.395 16.1704 210.878 15.9254 211.361 15.6804C214.743 13.9653 218.608 13.2303 222.956 13.2303C224.888 13.2303 226.579 13.4753 228.27 13.9653C229.72 14.4553 231.169 15.1903 232.377 16.1704C233.584 17.1504 234.551 18.3754 235.034 20.0905C235.758 21.8055 236 23.7655 236 25.9706V41.1609C236 42.631 235.517 43.611 234.792 44.346C234.068 45.081 233.101 45.571 232.135 45.571C231.41 45.571 230.686 45.326 230.203 45.081C228.753 44.346 228.27 43.121 228.27 41.1609V40.1809C227.546 41.896 226.338 43.366 224.647 44.346C222.956 45.326 221.024 45.8161 218.85 45.8161C215.709 45.8161 213.294 45.081 211.12 43.366C209.187 41.651 208.221 39.4459 208.221 36.7508C207.98 35.5258 207.98 34.3008 208.221 33.0758ZM222.714 40.1809C223.681 39.6909 224.405 39.2009 225.13 38.4659C225.855 37.7309 226.338 36.7508 226.821 35.7708C227.304 34.7908 227.546 33.5658 227.546 32.3407V31.3607C226.096 31.3607 225.13 31.3607 224.164 31.3607C223.198 31.3607 222.473 31.3607 221.507 31.6057C220.54 31.6057 219.816 31.8507 219.333 31.8507C218.85 32.0957 218.125 32.0957 217.642 32.3407C217.159 32.5857 216.676 32.8308 216.434 33.3208C216.192 33.8108 215.951 34.0558 215.709 34.5458C215.468 35.0358 215.468 35.5258 215.468 36.2608C215.468 37.7309 215.951 38.7109 216.676 39.4459C217.4 40.1809 218.608 40.6709 219.816 40.6709C220.782 40.6709 221.748 40.4259 222.714 40.1809ZM16.1842 28.9107C16.4258 29.4007 16.6673 29.8907 16.6673 30.6257C16.6673 31.3607 16.4258 31.8507 16.1842 32.0957C15.9427 32.5857 15.4596 32.8307 15.218 32.8307C14.9765 32.8307 14.4933 32.8308 14.2518 32.0957C14.0102 31.6057 13.7687 31.1157 13.7687 30.3807C13.7687 29.6457 14.0102 29.1557 14.2518 28.6657C14.4933 28.1756 14.9765 27.9306 15.218 27.9306C15.4596 27.9306 15.9427 28.4207 16.1842 28.9107ZM31.6438 3.67508V41.1609C31.6438 43.121 29.9529 44.836 28.0205 44.836H22.2231V50.2261C22.2231 51.2062 21.74 52.1862 21.0154 52.6762C20.5322 52.9212 20.2907 52.9212 19.8076 52.9212C19.3245 52.9212 18.8414 52.9212 18.5998 52.6762L2.89867 45.326C1.20778 44.591 0 42.631 0 40.6709V2.94007C0 1.47003 0.966223 0.245006 2.41556 0.245006H28.262C30.1945 0.245006 31.6438 1.71504 31.6438 3.67508ZM18.1167 13.7203C18.1167 13.4753 17.6336 12.9853 17.6336 12.7403L4.10645 6.37015V39.6909C4.10645 39.9359 4.348 40.1809 4.348 40.1809L17.8751 46.5511V41.4059C18.1167 40.6709 18.1167 36.5058 18.1167 13.7203ZM22.2231 13.2303V39.4459H27.0542V5.63513H11.8362L19.8076 9.31021C21.2569 10.0452 22.2231 11.5153 22.2231 13.2303Z" fill="var(--fill-0, white)"/>
</svg>
