<svg preserveAspectRatio="none" width="100%" height="100%" overflow="visible" style="display: block;" viewBox="0 0 189.304 25.4605" fill="none" xmlns="http://www.w3.org/2000/svg">
<g id="Group 505">
<g id="Vector">
<path d="M118.944 6.19536C119.665 6.19536 120.313 7.45604 120.313 8.64468C120.313 10.1575 118.656 12.3547 115.955 13.3632C116.459 9.65323 118.044 6.19536 118.944 6.19536ZM125.32 8.93284C125.32 7.31196 123.771 5.79914 121.142 5.79914C113.325 5.79914 108.715 11.5623 108.715 17.9737C108.715 22.4041 111.957 24.8535 115.198 24.8535C119.305 24.8535 122.546 20.6032 123.915 16.677L123.807 16.641C122.222 19.2704 120.205 19.9548 119.016 19.9548C117.252 19.9548 115.775 18.9823 115.775 15.6685C115.775 14.9481 115.847 14.2277 115.919 13.5073C122.078 12.859 125.32 11.5623 125.32 8.93284Z" fill="#222222"/>
<path d="M128.069 4.53846C128.069 8.96886 124.179 17.3974 124.179 21.6477C124.179 23.8089 125.295 24.8535 126.88 24.8535C129.149 24.8535 131.094 22.116 133.039 19.0903L132.931 19.0183C132.247 19.7027 131.959 19.9908 131.635 19.9908C131.382 19.9908 131.202 19.7027 131.202 19.2344C131.202 16.533 134.732 7.52808 134.732 3.20574C134.732 1.04457 133.76 0 132.391 0C130.23 0 128.537 2.01709 126.484 4.4304L126.592 4.50244C127.132 4.03419 127.492 3.78205 127.708 3.78205C127.889 3.78205 128.069 4.0702 128.069 4.53846Z" fill="#222222"/>
<path d="M140.92 24.8535C148.196 24.8535 152.266 19.3425 152.266 12.4988C152.266 7.5641 148.88 5.79914 145.602 5.79914C138.327 5.79914 134.256 11.3101 134.256 18.1538C134.256 23.0885 137.642 24.8535 140.92 24.8535ZM144.126 6.19536C145.422 6.19536 146.143 8.17643 146.143 9.58119C146.143 16.8571 144.198 24.4212 142.649 24.4212C141.496 24.4212 140.56 23.0165 140.56 21.0714C140.56 16.1728 142.505 6.19536 144.126 6.19536Z" fill="#222222"/>
<path d="M162.003 9.36507C162.003 6.95177 161.102 5.79914 159.77 5.79914C157.5 5.79914 155.519 8.46459 153.61 11.4902L153.718 11.5623C154.439 10.8419 154.763 10.6258 155.051 10.6258C155.303 10.6258 155.483 10.8419 155.483 11.2021C155.483 12.3907 153.178 20.2069 151.593 24.4933H158.545C161.931 13.0751 163.66 10.7698 164.848 10.7698C165.101 10.7698 165.353 11.022 165.353 11.4182C165.353 13.9396 162.399 18.1178 162.399 21.2875C162.399 23.7008 163.516 24.8535 165.173 24.8535C167.442 24.8535 169.387 22.116 171.332 19.0903L171.224 19.0183C170.539 19.7027 170.251 19.9908 169.927 19.9908C169.675 19.9908 169.495 19.7747 169.495 19.4145C169.495 18.1899 172.052 12.967 172.052 9.97741C172.052 7.52808 170.756 5.76312 168.63 5.76312C165.749 5.76312 162.651 10.0855 159.085 21.6477L158.905 21.5757C159.914 17.7216 162.003 12.0305 162.003 9.36507Z" fill="#222222"/>
<path d="M182.928 6.19536C183.649 6.19536 184.297 7.45604 184.297 8.64468C184.297 10.1575 182.64 12.3547 179.939 13.3632C180.443 9.65323 182.028 6.19536 182.928 6.19536ZM189.304 8.93284C189.304 7.31196 187.755 5.79914 185.125 5.79914C177.309 5.79914 172.699 11.5623 172.699 17.9737C172.699 22.4041 175.94 24.8535 179.182 24.8535C183.288 24.8535 186.53 20.6032 187.899 16.677L187.791 16.641C186.206 19.2704 184.189 19.9548 183 19.9548C181.235 19.9548 179.758 18.9823 179.758 15.6685C179.758 14.9481 179.83 14.2277 179.903 13.5073C186.062 12.859 189.304 11.5623 189.304 8.93284Z" fill="#222222"/>
<path d="M12.1535 12.181C13.8794 5.24128 14.0952 4.23448 14.7064 3.22768C16.5762 3.65917 18.2662 5.27724 19.2011 8.62125L20.1359 11.8214H20.2798C20.7832 8.72912 21.5023 5.49298 22.1495 2.97598H5.46547L5.42951 3.11981L6.29248 3.29959C7.22736 3.47938 7.40715 3.73108 4.6025 14.8418C2.58891 23.0401 2.44508 23.8671 1.29445 24.1188L0.0359568 24.4064L0 24.5503H12.8726V24.4064L11.1467 24.0828C9.7084 23.7952 9.31287 23.6154 11.686 14.0867C13.412 14.4104 14.203 15.8486 14.6345 18.9769L14.8503 20.7388H14.9581C15.4256 18.1499 17.1155 11.0304 18.0504 8.36955H17.9426L16.8279 10.0955C15.2817 12.5046 13.6637 13.5474 11.722 13.835C11.8658 13.3316 12.0096 12.7563 12.1535 12.181Z" fill="#222222"/>
<path d="M23.8179 4.63001C23.8179 9.05274 19.9345 17.4667 19.9345 21.7097C19.9345 23.8671 21.0492 24.9098 22.6313 24.9098C24.8966 24.9098 26.8383 22.1771 28.7799 19.1567L28.6721 19.0848C27.9889 19.768 27.7012 20.0556 27.3776 20.0556C27.1259 20.0556 26.9461 19.768 26.9461 19.3005C26.9461 16.6037 30.4699 7.61445 30.4699 3.29959C30.4699 1.14217 29.4991 0.09941 28.1327 0.09941C25.9753 0.09941 24.2853 2.11301 22.2358 4.52214L22.3436 4.59405C22.883 4.12661 23.2426 3.87491 23.4583 3.87491C23.6381 3.87491 23.8179 4.16257 23.8179 4.63001Z" fill="#222222"/>
<path d="M72.7298 18.4735C70.3207 18.4735 68.0194 18.2218 66.1137 15.9925C68.0554 13.7272 69.5296 10.491 70.1768 6.06829L63.5607 6.24808C63.8844 8.83699 64.8192 13.5474 65.898 15.9206C64.4597 18.1139 63.3091 18.5454 62.0146 18.5454C60.3965 18.5454 60.001 17.1431 60.001 15.4891C60.001 13.3676 61.7269 7.90211 62.9495 6.03234L62.3382 5.74468C62.1944 6.24808 62.0506 6.75148 61.691 7.83019C60.2527 6.21212 59.3897 5.45702 58.0953 5.45702C55.5423 5.45702 54.4996 9.69997 53.0613 14.5182L53.1692 14.5542C53.8524 13.1519 54.2838 12.7563 55.2906 12.7563C56.7289 12.7563 58.0234 13.008 59.8931 13.3676C56.657 15.8127 54.2479 17.7184 54.2479 19.3365C54.2479 21.6018 56.3694 24.9098 58.4908 24.9098C60.6482 24.9098 63.4888 21.6377 65.898 16.4959C65.5384 22.1771 66.9407 24.9098 68.5228 24.9098C70.2488 24.9098 72.55 23.2199 73.9523 17.9701C75.894 14.5182 77.7638 11.1382 77.7638 9.05274C77.7638 7.07509 76.4693 4.80979 71.3275 6.24808C72.6219 9.84379 73.8085 15.7048 73.8085 17.1071C73.8085 18.2218 73.413 18.4735 72.7298 18.4735Z" fill="#222222"/>
<path d="M87.5078 6.28404C88.227 6.28404 88.8742 7.54254 88.8742 8.72912C88.8742 10.2393 87.2202 12.4327 84.5234 13.4395C85.0268 9.73592 86.6089 6.28404 87.5078 6.28404ZM93.8722 9.01678C93.8722 7.39871 92.3261 5.88851 89.7012 5.88851C81.8986 5.88851 77.2961 11.6417 77.2961 18.042C77.2961 22.4647 80.5322 24.9098 83.7683 24.9098C87.8674 24.9098 91.1036 20.6669 92.4699 16.7476L92.362 16.7116C90.7799 19.3365 88.7663 20.0197 87.5798 20.0197C85.8179 20.0197 84.3436 19.0488 84.3436 15.7408C84.3436 15.0216 84.4155 14.3025 84.4875 13.5833C90.6361 12.9361 93.8722 11.6417 93.8722 9.01678Z" fill="#222222"/>
<path d="M99.1332 24.5503C102.19 14.5542 103.915 12.9361 108.949 12.6125C109.345 9.01678 108.806 5.85255 106.684 5.85255C104.455 5.85255 103.088 11.2821 99.7804 21.7097L99.4928 21.6377C100.5 17.6105 101.866 11.7855 101.866 9.08869C101.866 7.11105 101.291 5.88851 99.9602 5.88851C97.6949 5.88851 95.7173 8.54934 93.8116 11.5697L93.9194 11.6417C94.6386 10.9225 94.9622 10.7068 95.2498 10.7068C95.5015 10.7068 95.6813 10.9225 95.6813 11.2821C95.6813 13.5474 93.6318 20.2354 91.8339 24.5503H99.1332Z" fill="#222222"/>
</g>
<g id="Logo">
<path id="Vector_2" d="M39.0678 11.2606C38.1667 3.55344 46.4106 3.56498 43.1854 12.0289C43.1759 12.0538 43.2061 12.0744 43.2268 12.0568C49.0078 7.31078 52.8949 15.0192 44.582 16.0692C44.5562 16.0722 44.5499 16.1056 44.5738 16.1172C50.7084 19.113 48.2116 26.191 42.3753 19.4227C42.3583 19.4026 42.3238 19.4172 42.3288 19.4427C43.819 26.321 34.9798 27.3364 38.2175 18.6939C38.2263 18.6702 38.1956 18.6508 38.1755 18.6672C32.4968 23.2912 28.0615 16.1062 36.6024 14.7605C36.6275 14.7562 36.6332 14.724 36.61 14.7125C30.5627 11.7993 32.7298 4.37633 39.022 11.2801C39.0389 11.2989 39.0709 11.2855 39.0678 11.2606V11.2606Z" fill="var(--fill-0, #222222)" stroke="var(--stroke-0, #222222)" stroke-width="0.918801" stroke-miterlimit="10"/>
<path id="Vector_3" d="M33.9583 8.53804C33.9583 8.53804 35.7806 7.45402 39.0429 9.25526" stroke="var(--stroke-0, #222222)" stroke-width="0.918801" stroke-miterlimit="10"/>
<path id="Vector_4" d="M42.2753 5.621H44.3601C44.3601 5.621 46.5693 5.71513 45.4741 10.7569" stroke="var(--stroke-0, #222222)" stroke-width="0.918801" stroke-miterlimit="10"/>
<path id="Vector_5" d="M46.2656 15.7238C49.9492 15.7238 51.5141 13.4507 51.2196 12.1219C50.7624 10.0583 47.0882 10.5369 47.0882 10.5369" stroke="var(--stroke-0, #222222)" stroke-width="0.918801" stroke-miterlimit="10"/>
<path id="Vector_6" d="M47.3755 22.0806C47.3755 22.0806 49.2606 22.6624 49.9834 21.2268C50.239 20.7185 50.661 17.7713 45.9651 15.8079" stroke="var(--stroke-0, #222222)" stroke-width="0.918801" stroke-miterlimit="10"/>
<path id="Vector_7" d="M39.6866 24.8895C39.6866 24.8895 41.7596 25.3893 42.9715 24.2743C43.6604 23.6409 44.068 22.7378 44.2815 21.2627" stroke="var(--stroke-0, #222222)" stroke-width="0.918801" stroke-miterlimit="10"/>
<path id="Vector_8" d="M33.562 19.9777C33.562 19.9777 34.6008 20.6475 37.8615 19.7712" stroke="var(--stroke-0, #222222)" stroke-width="0.918801" stroke-miterlimit="10"/>
<path id="Vector_9" d="M40.9803 16.5832C41.7194 16.4137 42.1469 15.5768 41.9354 14.7139C41.7238 13.8511 40.9532 13.289 40.2141 13.4584C39.4751 13.6279 39.0475 14.4648 39.2591 15.3277C39.4707 16.1905 40.2413 16.7526 40.9803 16.5832Z" fill="var(--fill-0, #EC6741)" stroke="var(--stroke-0, #222222)" stroke-width="0.918801" stroke-miterlimit="10"/>
</g>
</g>
</svg>
