<svg preserveAspectRatio="none" width="100%" height="100%" overflow="visible" style="display: block;" viewBox="0 0 109.146 74.9454" fill="none" xmlns="http://www.w3.org/2000/svg">
<g id="MV KA">
<path d="M19.7234 33.5922H0L3.8871 0H23.6106L27.8816 18.8116H28.8413L33.1604 0H52.8358L56.7709 33.5922H36.9995L39.5909 16.1243L38.5831 15.9803L31.8646 31.5286H24.8583L18.1878 15.9803L17.132 16.1243L19.7234 33.5922Z" fill="var(--fill-0, #F1F1F1)"/>
<path d="M90.4029 33.5922H73.0789L54.5552 0H75.5743L81.333 18.2838H82.2448L87.9555 0H108.927L90.4029 33.5922Z" fill="var(--fill-0, #F1F1F1)"/>
<path d="M20.0341 68.3414L21.4257 74.9158H4.19772V41.3237H20.8499L19.0263 58.0718H19.8901L24.9769 41.3237H50.507L24.449 56.8721L25.0729 57.8318C27.9842 55.3684 31.0395 54.1367 34.2388 54.1367C39.8055 54.1367 44.0125 56.0722 46.8599 59.9433C49.7072 63.7825 50.699 68.7732 49.8352 74.9158H31.2635C31.8713 72.0685 32.1593 69.5411 32.1273 67.3336C32.1273 65.0941 31.5674 63.3025 30.4477 61.9588C29.3599 60.6152 27.7443 59.9433 25.6008 59.9433C23.3293 59.9433 21.7137 60.7751 20.7539 62.4387C19.7941 64.0703 19.5542 66.0379 20.0341 68.3414Z" fill="var(--fill-0, #F1F1F1)"/>
<path d="M77.8088 68.5149L76.2251 74.9454H54.7741L73.2978 41.3531H90.6218L109.146 74.9454H87.6465L86.1109 68.5149H77.8088ZM82.4157 54.886H81.5039L79.1525 64.1479H84.7192L82.4157 54.886Z" fill="var(--fill-0, #F1F1F1)"/>
</g>
</svg>
