<svg preserveAspectRatio="none" width="100%" height="100%" overflow="visible" style="display: block;" viewBox="0 0 65 44" fill="none" xmlns="http://www.w3.org/2000/svg">
<g id="MV KA">
<path d="M11.746 19.7218H0L2.31491 0H14.0609L16.6044 11.0442H17.176L19.7481 0H31.4656L33.8091 19.7218H22.0345L23.5777 9.46646L22.9776 9.38194L18.9765 18.5103H14.804L10.8315 9.38194L10.2027 9.46646L11.746 19.7218Z" fill="var(--fill-0, white)"/>
<path d="M53.8381 19.7218H43.521L32.4895 0H45.0071L48.4366 10.7343H48.9796L52.3806 0H64.8696L53.8381 19.7218Z" fill="var(--fill-0, white)"/>
<path d="M11.931 40.1228L12.7598 43.9826H2.49989V24.2609H12.4168L11.3308 34.0936H11.8453L14.8746 24.2609H30.0787L14.5603 33.3893L14.9318 33.9527C16.6656 32.5065 18.4851 31.7833 20.3904 31.7833C23.7056 31.7833 26.211 32.9197 27.9067 35.1924C29.6024 37.4463 30.193 40.3764 29.6786 43.9826H18.6185C18.9805 42.311 19.152 40.8272 19.1329 39.5312C19.1329 38.2164 18.7995 37.1646 18.1326 36.3757C17.4849 35.5868 16.5227 35.1924 15.2462 35.1924C13.8934 35.1924 12.9313 35.6807 12.3597 36.6574C11.7881 37.6153 11.6452 38.7705 11.931 40.1228Z" fill="var(--fill-0, white)"/>
<path d="M46.3378 40.2247L45.3947 44H32.6199L43.6514 24.2782H53.9685L65 44H52.1966L51.282 40.2247H46.3378ZM49.0814 32.2233H48.5384L47.1381 37.6608H50.4532L49.0814 32.2233Z" fill="var(--fill-0, white)"/>
</g>
</svg>
