<svg preserveAspectRatio="none" width="100%" height="100%" overflow="visible" style="display: block;" viewBox="0 0 124.17 85.2617" fill="none" xmlns="http://www.w3.org/2000/svg">
<g id="MV KA">
<path d="M22.4384 38.2162H0L4.42217 0H26.8606L31.7195 21.4011H32.8114L37.7249 0H60.1088L64.5855 38.2162H42.0925L45.0406 18.3438L43.8941 18.18L36.2509 35.8686H28.2801L20.6914 18.18L19.4903 18.3438L22.4384 38.2162Z" fill="var(--fill-0, #F1F1F1)"/>
<path d="M102.847 38.2162H83.1383L62.0648 0H85.9773L92.5286 20.8005H93.5659L100.063 0H123.921L102.847 38.2162Z" fill="var(--fill-0, #F1F1F1)"/>
<path d="M22.7918 77.7487L24.375 85.2281H4.77554V47.0119H23.7199L21.6453 66.0655H22.628L28.415 47.0119H57.4594L27.8145 64.7006L28.5242 65.7925C31.8363 62.99 35.3122 61.5887 38.9518 61.5887C45.2848 61.5887 50.0709 63.7907 53.3102 68.1946C56.5495 72.5622 57.6778 78.24 56.6951 85.2281H35.5669C36.2585 81.9888 36.5861 79.1135 36.5497 76.6022C36.5497 74.0544 35.9127 72.0162 34.6388 70.4876C33.4014 68.9589 31.5633 68.1946 29.1248 68.1946C26.5406 68.1946 24.7026 69.1409 23.6107 71.0335C22.5188 72.8897 22.2458 75.1281 22.7918 77.7487Z" fill="var(--fill-0, #F1F1F1)"/>
<path d="M88.5193 77.9461L86.7177 85.2617H62.3138L83.3874 47.0455H103.096L124.17 85.2617H99.7112L97.9642 77.9461H88.5193ZM93.7604 62.4412H92.7231L90.048 72.9779H96.3809L93.7604 62.4412Z" fill="var(--fill-0, #F1F1F1)"/>
</g>
</svg>
