<svg preserveAspectRatio="none" width="100%" height="100%" overflow="visible" style="display: block;" viewBox="0 0 486 57" fill="none" xmlns="http://www.w3.org/2000/svg">
<g id="Calque_1" clip-path="url(#clip0_0_28)">
<g id="Vector">
<path d="M199.663 39.6433C202.183 41.0801 204.35 42.8809 206.82 43.5642C209.578 44.3241 212.723 44.5859 215.501 44.0431C216.935 43.7622 218.741 41.3547 218.896 39.7646C219.031 38.3789 217.398 36.278 215.983 35.4222C213.842 34.1259 211.237 33.532 208.781 32.8041C198.569 29.7772 195.348 25.6264 196.055 16.2456C196.711 7.5289 202.846 1.17499 211.977 0.172418C218.864 -0.581111 225.294 1.20692 231.647 4.44454C229.776 8.09724 228.04 11.4817 226.169 15.1281C224.78 14.3809 223.577 13.34 222.227 13.091C219.552 12.5929 216.748 12.1267 214.099 12.4588C212.871 12.612 211.141 14.5853 210.999 15.8816C210.864 17.1268 212.253 18.8318 213.404 19.828C214.472 20.7476 216.079 21.1307 217.513 21.5394C223.082 23.1167 228.593 24.7579 232.734 30.6584V1.58369H246.906C246.906 2.85447 246.906 3.98476 246.906 5.11506C246.906 13.5316 246.874 21.9481 246.932 30.3647C246.951 32.5933 247.048 34.8539 247.479 37.0315C248.514 42.2743 251.453 44.5157 256.719 44.3816C261.664 44.2603 264.609 41.8081 265.413 36.693C265.857 33.8705 265.882 30.9585 265.902 28.0913C265.96 19.3683 265.921 10.6388 265.921 1.66032H279.746V31.8334C280.004 31.8653 280.267 31.8909 280.524 31.9228C281.315 27.3761 282.106 22.8294 282.891 18.2827C283.727 13.455 284.633 8.64004 285.334 3.79319C285.604 1.89659 286.408 1.3091 288.26 1.37934C291.893 1.52622 296.362 0.217119 298.947 1.88382C301.462 3.50583 302.143 8.04616 303.468 11.3668C305.802 17.1971 308.014 23.0784 310.284 28.9342C310.316 29.0109 310.438 29.0556 310.908 29.4068C313.171 23.8703 315.39 18.4359 317.608 13.0016C318.856 9.94275 320.225 6.92864 321.274 3.80596C321.949 1.79442 323.093 1.28994 325.08 1.37296C328.701 1.51983 332.334 1.41127 336.314 1.41127C338.417 15.1281 340.487 28.6341 342.558 42.1338C342.764 42.1338 342.976 42.1274 343.182 42.121C344.957 31.827 346.725 21.5394 348.5 11.2455C348.84 9.25308 349.439 7.2607 349.458 5.26193C349.496 1.73695 351.374 1.01535 354.39 1.37934C355.657 1.5326 356.962 1.37934 358.248 1.41127C365.521 1.58369 363.431 0.146874 366.228 7.01804C369.225 14.3809 371.906 21.8715 375.038 30.1156C378.459 21.6799 381.52 14.0297 384.651 6.41138C387.198 0.210733 385.738 1.56453 392.136 1.41766C394.901 1.3538 397.666 1.40488 400.701 1.40488C403.042 16.667 405.344 31.6482 407.646 46.6358L408.296 46.5592V1.62839H438.775V13.3272H422.571V22.2419H438.004V34.1259H422.577V43.379H438.814V55.2503H394.785C393.493 45.2948 392.213 35.4031 390.934 25.5178C390.741 25.4731 390.554 25.4284 390.361 25.3837C388.471 29.8346 386.555 34.2728 384.683 38.7301C382.703 43.4429 380.671 48.1428 378.838 52.9131C378.06 54.9374 376.915 55.544 374.761 55.5376C372.665 55.5376 371.771 54.7713 371.057 52.9386C367.894 44.7967 364.601 36.7058 361.348 28.5958C360.917 27.523 360.428 26.4757 359.579 24.5152C357.978 35.3265 356.512 45.2309 355.026 55.2694H330.405C329.119 45.3395 327.832 35.4478 326.553 25.5561C326.36 25.4987 326.173 25.4348 325.981 25.3773C324.096 29.7963 322.193 34.2153 320.328 38.6407C318.258 43.545 316.071 48.411 314.219 53.3984C313.39 55.627 311.866 55.3588 310.162 55.4802C308.381 55.6079 307.493 54.9757 306.844 53.309C303.667 45.1734 300.362 37.089 297.095 28.9853C296.626 27.8167 296.15 26.6481 295.057 25.4731C293.591 35.3584 292.118 45.2437 290.633 55.2694H276.64C277.058 52.5108 277.451 49.8798 277.901 46.9168C263.317 61.8532 241.544 59.9247 233.416 42.7277C231.917 49.0816 228.13 53.0408 222.503 55.0332C212.337 58.6284 202.961 56.5019 193.779 50.6589C195.817 46.8465 197.74 43.2385 199.675 39.6241L199.663 39.6433Z" fill="var(--fill-0, white)" style="mix-blend-mode:difference"/>
</g>
<g id="Vector_2">
<path d="M63.3262 55.212V1.43681C67.821 1.43681 72.1743 1.33464 76.5213 1.52622C77.3379 1.56453 78.251 2.63097 78.8748 3.41642C86.2182 12.7078 93.5103 22.0439 100.822 31.3609C101.407 32.1016 102.005 32.8296 103.175 34.2856V1.64755H117.27V45.9717C117.521 46.0291 117.778 46.0866 118.029 46.1441C119.277 42.9959 120.55 39.854 121.778 36.693C126.016 25.7732 130.285 14.8662 134.414 3.90813C135.134 2.00515 136.047 1.25801 138.111 1.3538C141.641 1.51983 145.185 1.29633 148.715 1.48151C149.641 1.5326 151.036 2.29252 151.332 3.0652C157.936 20.2559 164.418 37.4976 170.912 54.7266C170.938 54.7969 170.842 54.9182 170.63 55.4419C166.366 55.4419 161.916 55.5313 157.479 55.3525C156.779 55.3269 155.84 54.1966 155.499 53.3792C152.425 46.01 152.457 45.9972 144.272 45.9972C141.378 45.9972 138.478 46.1058 135.597 45.9589C133.758 45.8631 133.006 46.6038 132.375 48.2514C129.623 55.4738 129.565 55.4546 121.958 55.4546C116.814 55.4546 111.67 55.3588 106.532 55.4993C104.294 55.5568 102.847 54.9182 101.439 53.0663C94.3977 43.8132 87.1699 34.6943 80.0001 25.537C79.357 24.7132 78.6368 23.9469 77.4601 22.5867V55.2056H63.3455L63.3262 55.212ZM148.728 35.071C146.837 29.4323 145.088 24.2151 143.339 19.0043C143.12 19.0298 142.908 19.0553 142.69 19.0809C140.921 24.3237 139.159 29.5728 137.307 35.071H148.728Z" fill="var(--fill-0, white)" style="mix-blend-mode:difference"/>
</g>
<g id="Vector_3">
<path d="M-5.29246e-05 55.4674V1.32825C12.1469 2.31167 24.7375 -1.36018 35.8621 6.50717C41.1157 10.2173 44.4659 15.2302 46.8773 21.1627V1.64755H60.7411V55.1736H47.0123V35.3776C45.0639 38.794 43.6106 42.0891 41.495 44.8988C37.3539 50.397 31.6116 53.6155 24.834 54.9054C22.9499 55.2631 21.0079 55.4291 19.0852 55.4482C12.7899 55.5121 6.49461 55.4738 -0.0129136 55.4738L-5.29246e-05 55.4674ZM14.2753 13.4805V43.3471C20.9308 43.6472 26.9753 42.7915 30.4284 36.7186C33.5728 31.1884 33.5536 25.2113 30.1648 19.7386C26.5766 13.9467 20.725 13.0654 14.2753 13.4741V13.4805Z" fill="var(--fill-0, white)" style="mix-blend-mode:difference"/>
</g>
<g id="Vector_4">
<path d="M469.21 33.5831C474.715 40.748 480.123 47.798 486 55.461C480 55.461 474.792 55.5568 469.596 55.3652C468.722 55.3333 467.661 54.2158 467.088 53.3409C463.23 47.4851 459.475 41.5527 455.083 35.7479V55.18H441.148V2.06901C450.267 2.06901 459.282 1.43681 468.162 2.26059C475.699 2.95664 480.123 8.86354 480.605 16.3477C481.152 24.8026 477.891 30.1475 470.516 32.8807C470.136 33.0212 469.789 33.2638 469.204 33.5831H469.21ZM455.128 25.6072C458.922 25.3007 462.799 25.9904 465.127 22.2866C466.6 19.943 466.58 17.2354 464.818 15.0834C462.323 12.0373 458.787 12.0501 455.128 12.3758V25.6072Z" fill="var(--fill-0, white)" style="mix-blend-mode:difference"/>
</g>
</g>
<defs>
<clipPath id="clip0_0_28">
<rect width="486" height="57" fill="white"/>
</clipPath>
</defs>
</svg>
