<svg preserveAspectRatio="none" width="100%" height="100%" overflow="visible" style="display: block;" viewBox="0 0 180.622 63" fill="none" xmlns="http://www.w3.org/2000/svg">
<g id="Logo">
<g id="Vector">
<path d="M60.4883 0C64.3338 0.01417 68.1793 0.00472334 72.0248 0.00472334C74.8554 3.3394 77.6787 6.6788 80.4922 10.0276C77.0605 10.1599 73.619 10.1103 70.1872 10.0607C68.8802 8.36267 67.6146 6.63157 66.2663 4.96423C65.0274 6.49695 63.8884 8.10289 62.7079 9.67812C62.4061 10.2237 61.6906 10.0631 61.1673 10.1056C58.142 10.0583 55.1118 10.1882 52.089 10.0206C54.8904 6.68352 57.6893 3.34176 60.4883 0Z" fill="white"/>
<path d="M0.00178372 25.7658C0.0139531 21.6258 -0.0176872 17.4834 0.0163869 13.3434C0.196493 17.448 0.0650643 21.5597 0.0821013 25.6666C3.80835 25.6194 7.53704 25.6099 11.2633 25.6524C12.103 25.6454 12.9427 25.5863 13.7823 25.5249C9.31863 25.2462 4.84031 25.5249 0.369298 25.3761C0.32062 21.4794 0.32062 17.5826 0.371732 13.6882C11.9521 13.6528 23.5348 13.6835 35.1152 13.6717C37.6975 13.6835 40.2774 13.6481 42.8573 13.7119C43.108 16.2719 42.9109 18.8414 42.9863 21.4085C43.0326 22.7216 42.9498 24.0347 42.8573 25.3478C38.3912 25.6076 33.8983 25.1282 29.4443 25.617L29.2106 25.6217C28.9502 27.752 29.1108 29.8987 29.0792 32.036C29.0889 41.0104 29.067 49.9871 29.0914 58.9614C29.0719 59.7361 29.0257 60.5083 28.9843 61.2829C25.8422 61.5522 22.6879 61.3514 19.5384 61.4081C17.7836 61.4388 16.0264 61.4388 14.274 61.3113C14.2813 50.9223 14.2788 40.5357 14.2764 30.1467C14.274 28.6943 14.3421 27.2419 14.2545 25.7894C14.162 25.7847 13.977 25.7729 13.8846 25.7682C9.25778 25.754 4.62857 25.7564 0.00178372 25.7658Z" fill="white"/>
<path d="M0.0163869 13.3434C14.4517 13.3647 28.8894 13.3245 43.3246 13.3647C43.3003 17.4811 43.3709 21.6116 43.2905 25.7209C38.6759 25.6383 34.0565 25.8319 29.4443 25.617C33.8983 25.1282 38.3912 25.6076 42.8573 25.3478C42.9498 24.0347 43.0326 22.7216 42.9863 21.4085C42.9109 18.8414 43.108 16.2719 42.8573 13.7119C40.2774 13.6481 37.6975 13.6835 35.1152 13.6717C23.5348 13.6835 11.9521 13.6528 0.371732 13.6882C0.32062 17.5826 0.32062 21.4794 0.369298 25.3761C4.84031 25.5249 9.31863 25.2462 13.7823 25.5249C12.9427 25.5863 12.103 25.6454 11.2633 25.6524C7.53704 25.6099 3.80835 25.6194 0.0821013 25.6666C0.0650643 21.5597 0.196493 17.448 0.0163869 13.3434Z" fill="white"/>
<path d="M45.6441 17.6299C45.666 16.194 45.5759 14.7533 45.7171 13.3222C45.7536 13.4497 45.8242 13.7048 45.8583 13.8323C45.941 14.307 45.9873 14.7888 46.0019 15.2706C45.9994 28.2574 46.0043 41.2466 46.0019 54.2357C46.0359 56.588 45.8948 58.9425 46.0992 61.2924C46.8172 61.3349 47.5328 61.3869 48.2532 61.4152C60.5053 61.4058 72.7574 61.401 85.0119 61.4176C85.8078 61.401 86.6037 61.3585 87.3995 61.316C87.4774 57.4854 87.5407 53.6477 87.3679 49.8194C86.4187 49.7863 85.4695 49.7415 84.5203 49.732C78.275 49.7604 72.0272 49.7344 65.7819 49.7438C64.2194 49.7863 62.652 49.7982 61.0943 49.6517C63.2215 49.5029 65.356 49.5856 67.4856 49.5691C72.4337 49.5667 77.3842 49.5691 82.3322 49.5667C84.143 49.5596 85.9587 49.6399 87.7622 49.4321C87.7889 53.4965 87.7013 57.5633 87.8036 61.6277C86.6329 61.5144 85.4549 61.5002 84.2793 61.5309C73.2466 61.538 62.2114 61.5238 51.1787 61.538C49.3241 61.6112 47.4452 61.2711 45.6173 61.7104C45.6782 47.0161 45.6246 32.3218 45.6441 17.6299Z" fill="white"/>
<path d="M45.7171 13.3222C59.4758 13.3883 73.2344 13.3104 86.9955 13.3623C87.0052 17.5023 87.0198 21.6423 86.9858 25.7823C78.3601 25.7847 69.7321 25.7658 61.104 25.7918C61.0967 27.7803 61.1016 29.7712 61.0992 31.7597C68.9338 31.7833 76.7708 31.7408 84.6054 31.781C84.6152 35.6541 84.6225 39.5273 84.5981 43.398C76.766 43.4453 68.9313 43.4004 61.0992 43.424C61.0772 45.4125 61.1673 47.4081 61.0359 49.3967C60.6148 47.3302 60.8144 45.2212 60.9215 43.1382C61.8098 43.091 62.7006 43.0438 63.5914 43.032C70.4622 43.0603 77.3331 43.0343 84.2039 43.0509C84.2501 39.395 84.289 35.7344 84.1893 32.0785C83.4907 32.0408 82.7947 31.9983 82.0961 31.9794C75.033 31.9746 67.97 32.029 60.9069 31.9534C60.7584 29.8066 60.7487 27.6551 60.9264 25.5107C67.8191 25.5037 74.7093 25.5131 81.6021 25.5084C83.279 25.5438 84.9559 25.5249 86.628 25.4163C86.6207 21.4959 86.6183 17.5755 86.628 13.6528C85.764 13.6127 84.8999 13.5678 84.0335 13.556C72.8401 13.5749 61.6443 13.5654 50.4486 13.5631C48.9128 13.5017 47.3697 13.5347 45.8583 13.8323C45.8242 13.7048 45.7536 13.4497 45.7171 13.3222Z" fill="white"/>
<path d="M89.3174 25.7611C89.3199 21.6282 89.2931 17.4929 89.3296 13.3576C89.4221 17.4622 89.3174 21.5691 89.3807 25.6737C93.9539 25.4919 98.5369 25.7634 103.108 25.5178C98.6562 25.2699 94.19 25.6052 89.7385 25.3549C89.6922 21.4723 89.6947 17.5897 89.7385 13.7071C96.6774 13.5749 103.624 13.6859 110.565 13.6481C117.784 13.6646 125 13.6174 132.219 13.6717C132.341 17.5732 132.341 21.4817 132.219 25.3809C127.816 25.5887 123.404 25.2604 119.006 25.5367C123.54 25.7611 128.089 25.4517 132.626 25.7186L132.813 25.7327C128.113 25.8012 123.413 25.7327 118.716 25.7682C118.687 37.7891 118.753 49.81 118.682 61.8285C118.436 59.54 118.563 57.2398 118.541 54.9442C118.538 47.2287 118.541 39.5154 118.538 31.7999C118.519 29.8043 118.607 27.8063 118.458 25.813C118.21 27.8016 118.339 29.8043 118.327 31.7999C118.295 41.6905 118.38 51.5812 118.283 61.4719C113.247 61.4246 108.209 61.5475 103.176 61.3939C103.31 57.3579 103.195 53.3147 103.234 49.2762C103.234 41.4378 103.234 33.5995 103.234 25.7611C98.5953 25.7634 93.9564 25.7564 89.3174 25.7611Z" fill="white"/>
<path d="M89.3296 13.3576C103.77 13.3482 118.207 13.334 132.645 13.3623C132.626 17.4811 132.667 21.5998 132.626 25.7186C128.089 25.4517 123.54 25.7611 119.006 25.5367C123.404 25.2604 127.816 25.5887 132.219 25.3809C132.341 21.4817 132.341 17.5732 132.219 13.6717C125 13.6174 117.784 13.6646 110.565 13.6481C103.624 13.6859 96.6774 13.5749 89.7385 13.7071C89.6947 17.5897 89.6922 21.4723 89.7385 25.3549C94.19 25.6052 98.6562 25.2699 103.108 25.5178C98.5369 25.7634 93.9539 25.4919 89.3807 25.6737C89.3174 21.5691 89.4221 17.4622 89.3296 13.3576Z" fill="white"/>
<path d="M134.948 22.117C135.004 19.1956 134.819 16.2672 135.035 13.3505C135.189 15.639 135.069 17.9345 135.101 20.2277C135.115 28.8242 135.098 37.4206 135.111 46.0148C135.011 45.2944 134.94 44.5694 134.933 43.8444C134.952 36.6011 134.926 29.3603 134.948 22.117Z" fill="white"/>
<path d="M135.035 13.3505C138.966 13.3505 142.897 13.3505 146.83 13.3482C147.981 13.3529 149.137 13.3033 150.286 13.445C148.426 13.8394 146.521 13.6339 144.639 13.6575C141.577 13.6764 138.516 13.641 135.454 13.6906C135.378 23.8198 135.471 33.9514 135.434 44.0829C135.344 46.2533 135.975 48.367 136.009 50.5326C135.466 49.0826 135.293 47.538 135.111 46.0148C135.098 37.4206 135.115 28.8242 135.101 20.2277C135.069 17.9345 135.189 15.639 135.035 13.3505Z" fill="white"/>
<path d="M150.286 13.445L150.432 13.419C150.352 22.6933 150.42 31.9699 150.398 41.2442C150.51 43.6531 150.571 46.2344 151.963 48.3316C153.165 50.1028 155.412 50.9459 157.541 50.8609C159.311 50.9506 161.209 50.6153 162.572 49.4439C163.446 48.7236 163.947 47.7034 164.424 46.7162C164.414 46.839 164.397 47.0846 164.39 47.2074C165.366 45.3677 165.315 43.2611 165.334 41.2465C165.405 32.0502 165.32 22.8515 165.376 13.6552C170.282 13.6386 175.189 13.5725 180.093 13.6693C180.098 20.4214 180.091 27.1734 180.093 33.9254C180.144 38.2756 179.986 42.6305 180.179 46.976C179.882 50.7853 178.348 54.5805 175.622 57.3744C172.926 60.0809 169.219 61.6089 165.461 62.3221C161.216 63.0991 156.845 63.1865 152.559 62.6952C148.059 62.1969 143.469 60.7563 140.158 57.6389C138.17 55.6834 136.666 53.2084 136.009 50.5326C135.975 48.367 135.344 46.2533 135.434 44.0829C135.471 33.9514 135.378 23.8198 135.454 13.6906C138.516 13.641 141.577 13.6764 144.639 13.6575C146.521 13.6339 148.426 13.8394 150.286 13.445Z" fill="white"/>
<path d="M165.059 13.3576C170.205 13.3411 175.35 13.3482 180.493 13.3552C180.356 24.0867 180.51 34.8252 180.417 45.5566C180.371 46.0336 180.288 46.5083 180.179 46.976C179.986 42.6305 180.144 38.2756 180.093 33.9254C180.091 27.1734 180.098 20.4214 180.093 13.6693C175.189 13.5725 170.282 13.6386 165.376 13.6552C165.32 22.8515 165.405 32.0502 165.334 41.2465C165.315 43.2611 165.366 45.3677 164.39 47.2074C164.397 47.0846 164.414 46.839 164.424 46.7162C164.668 45.2165 165.064 43.731 165.013 42.1983C165.101 32.5863 165.011 22.972 165.059 13.3576Z" fill="white"/>
<path d="M180.493 13.3552C180.546 13.9102 180.597 14.4652 180.622 15.0226C180.604 24.6322 180.612 34.2442 180.617 43.8562C180.592 44.4254 180.512 44.9922 180.417 45.5566C180.51 34.8252 180.356 24.0867 180.493 13.3552Z" fill="white"/>
<path d="M45.8583 13.8323C47.3697 13.5347 48.9128 13.5017 50.4486 13.5631C61.6443 13.5654 72.8401 13.5749 84.0335 13.556C84.8999 13.5678 85.764 13.6127 86.628 13.6528C86.6183 17.5755 86.6207 21.4959 86.628 25.4163C84.9559 25.5249 83.279 25.5438 81.6021 25.5084C74.7093 25.5131 67.8191 25.5037 60.9264 25.5107C60.7487 27.6551 60.7584 29.8066 60.9069 31.9534C67.97 32.029 75.033 31.9746 82.0961 31.9794C82.7947 31.9983 83.4907 32.0408 84.1893 32.0785C84.289 35.7344 84.2501 39.395 84.2039 43.0509C77.3331 43.0343 70.4622 43.0603 63.5914 43.032C62.7006 43.0438 61.8098 43.091 60.9215 43.1382C60.8144 45.2212 60.6148 47.3302 61.0359 49.3967C69.9438 49.4297 78.8542 49.3565 87.7622 49.4321C85.9587 49.6399 84.143 49.5596 82.3322 49.5667C77.3842 49.5691 72.4337 49.5667 67.4856 49.5691C65.356 49.5856 63.2215 49.5029 61.0943 49.6517C62.652 49.7982 64.2194 49.7863 65.7819 49.7438C72.0272 49.7344 78.275 49.7604 84.5203 49.732C85.4695 49.7415 86.4187 49.7863 87.3679 49.8194C87.5407 53.6477 87.4774 57.4854 87.3995 61.316C86.6037 61.3585 85.8078 61.401 85.0119 61.4176C72.7574 61.401 60.5053 61.4058 48.2532 61.4152C47.5328 61.3869 46.8172 61.3349 46.0992 61.2924C45.8948 58.9425 46.0359 56.588 46.0019 54.2357C46.0043 41.2466 45.9994 28.2574 46.0019 15.2706C45.9873 14.7888 45.941 14.307 45.8583 13.8323Z" fill="white"/>
<path d="M13.8846 25.7682C13.977 25.7729 14.162 25.7847 14.2545 25.7894C14.3421 27.2419 14.274 28.6943 14.2764 30.1467C14.2788 40.5357 14.2813 50.9223 14.274 61.3113C16.0264 61.4388 17.7836 61.4388 19.5384 61.4081C22.6879 61.3514 25.8422 61.5522 28.9843 61.2829C29.0257 60.5083 29.0719 59.7361 29.0914 58.9614C29.067 49.9871 29.0889 41.0104 29.0792 32.036C29.1108 29.8987 28.9502 27.752 29.2106 25.6217C29.269 26.4979 29.308 27.3765 29.3128 28.255C29.308 38.0181 29.3128 47.7813 29.3104 57.5421C29.2885 58.9709 29.2739 60.402 29.3761 61.8309C24.2212 61.8309 19.0663 61.845 13.9138 61.819C13.87 49.8029 13.9284 37.7843 13.8846 25.7682Z" fill="white"/>
<path d="M29.2106 25.6217L29.4443 25.617C34.0565 25.8319 38.6759 25.6383 43.2905 25.7209C41.8838 25.9854 40.4356 25.7918 39.0094 25.8367C35.86 25.8863 32.7081 25.7351 29.5635 25.924C29.5197 26.8593 29.4662 27.7945 29.4686 28.7297C29.4735 38.4905 29.4686 48.2536 29.4735 58.0144C29.5149 59.2873 29.51 60.5626 29.3761 61.8309C29.2739 60.402 29.2885 58.9709 29.3104 57.5421C29.3128 47.7813 29.308 38.0181 29.3128 28.255C29.308 27.3765 29.269 26.4979 29.2106 25.6217Z" fill="white"/>
<path d="M118.327 31.7999C118.339 29.8043 118.21 27.8016 118.458 25.813C118.607 27.8063 118.519 29.8043 118.538 31.7999C118.541 39.5154 118.538 47.2287 118.541 54.9442C118.563 57.2398 118.436 59.54 118.682 61.8285C113.865 61.8403 109.046 61.8238 104.227 61.8379C103.823 61.8167 103.261 61.9135 103.176 61.3939C108.209 61.5475 113.247 61.4246 118.283 61.4719C118.38 51.5812 118.295 41.6905 118.327 31.7999Z" fill="white"/>
<path d="M155.976 51.0593C157.164 50.8703 158.376 50.868 159.569 51.0498C158.386 51.3332 157.159 51.3285 155.976 51.0593Z" fill="white"/>
<path d="M45.6173 61.7104C47.4452 61.2711 49.3241 61.6112 51.1787 61.538C62.2114 61.5238 73.2466 61.538 84.2793 61.5309C85.4549 61.5002 86.6329 61.5144 87.8036 61.6277C87.4677 61.786 87.0856 61.8167 86.718 61.8403C75.3592 61.8238 64.0003 61.8379 52.639 61.8332C50.3001 61.7695 47.9465 61.9726 45.6173 61.7104Z" fill="white"/>
</g>
</g>
</svg>
